if (_typeface_js && _typeface_js.loadFace) _typeface_js.loadFace({"glyphs":{"S":{"x_min":33,"x_max":660,"ha":695,"o":"m 33 0 l 33 122 l 366 122 q 490 153 451 122 q 529 248 529 184 q 472 353 529 314 q 291 452 415 392 q 103 571 166 512 q 40 727 40 630 q 74 860 40 804 q 169 944 109 916 q 306 973 229 973 l 616 973 l 616 850 l 288 850 q 202 820 234 850 q 171 734 171 790 q 219 644 171 676 q 399 549 268 612 q 595 422 530 485 q 660 259 660 360 q 628 123 660 182 q 535 32 596 64 q 389 0 474 0 l 33 0 "},"/":{"x_min":-8.140625,"x_max":394.6875,"ha":386,"o":"m 286 989 l 394 989 l 99 -17 l -8 -17 l 286 989 "},"K":{"x_min":89,"x_max":758.78125,"ha":773,"o":"m 220 0 l 89 0 l 89 973 l 220 973 l 220 564 l 319 564 q 489 697 430 564 l 612 973 l 758 973 l 664 766 q 635 703 650 734 q 603 638 621 671 q 565 582 585 606 q 517 539 544 557 q 662 450 612 514 q 712 269 712 385 l 712 0 l 581 0 l 581 269 q 538 395 581 349 q 401 442 495 442 l 220 442 l 220 0 "},"7":{"x_min":61,"x_max":698,"ha":772,"o":"m 61 850 l 61 973 l 548 973 q 662 949 626 973 q 698 872 698 925 q 687 814 698 846 q 657 742 676 781 q 614 649 639 702 l 327 0 l 174 0 l 555 850 l 61 850 "},"d":{"x_min":36,"x_max":717,"ha":773,"o":"m 595 973 l 717 973 l 717 352 q 692 205 717 272 q 622 87 668 137 q 514 12 576 37 q 380 -13 452 -13 q 197 35 275 -13 q 77 167 118 84 q 36 349 36 251 q 61 479 36 417 q 132 585 87 540 q 235 655 177 630 q 356 681 292 681 q 546 633 462 681 l 546 505 q 494 534 522 521 q 435 556 465 548 q 377 564 405 564 q 288 547 328 564 q 218 500 248 531 q 173 428 188 470 q 158 335 158 386 q 186 215 158 267 q 265 132 214 162 q 380 103 317 103 q 489 133 440 103 q 566 225 538 163 q 595 375 595 287 l 595 973 "},",":{"x_min":86.125,"x_max":275.34375,"ha":386,"o":"m 86 -139 l 144 134 l 275 134 l 194 -139 l 86 -139 "},"Y":{"x_min":32,"x_max":661,"ha":694,"o":"m 410 0 l 280 0 l 280 380 q 140 445 196 400 q 58 551 84 491 q 32 677 32 611 l 32 973 l 163 973 l 163 676 q 213 549 163 595 q 347 503 263 503 q 443 523 402 503 q 506 583 483 543 q 530 676 530 622 l 530 973 l 661 973 l 661 677 q 646 582 661 629 q 600 496 631 536 q 522 425 570 456 q 410 380 474 395 l 410 0 "},"E":{"x_min":32,"x_max":638,"ha":695,"o":"m 637 564 l 637 442 l 170 442 q 199 316 170 374 q 277 214 228 257 q 387 146 326 170 q 511 122 449 122 l 638 122 l 638 0 l 534 0 q 335 36 428 0 q 173 141 241 73 q 68 297 105 208 q 32 486 32 386 q 68 676 32 586 q 173 832 105 765 q 333 936 241 899 q 534 973 426 973 l 638 973 l 638 850 l 549 850 q 346 801 432 850 q 214 686 259 753 q 169 564 169 619 l 637 564 "},"y":{"x_min":69,"x_max":625,"ha":694,"o":"m 69 667 l 192 667 l 192 266 q 232 148 192 194 q 347 103 273 103 q 461 148 420 103 q 502 266 502 193 l 502 667 l 625 667 l 625 265 q 408 -13 625 43 l 408 -300 l 286 -300 l 286 -13 q 69 265 69 43 l 69 667 "},"\"":{"x_min":77,"x_max":388,"ha":463,"o":"m 274 598 l 274 973 l 388 973 l 388 598 l 274 598 m 77 598 l 77 973 l 191 973 l 191 598 l 77 598 "},"‹":{"x_min":95.625,"x_max":381.8125,"ha":463,"o":"m 201 333 l 381 119 l 276 119 l 95 333 l 267 547 l 373 547 l 201 333 "},"„":{"x_min":58.328125,"x_max":482.171875,"ha":541,"o":"m 161 -142 l 58 -142 l 108 139 l 225 139 l 161 -142 m 417 -142 l 315 -142 l 365 139 l 482 139 l 417 -142 "},"g":{"x_min":45,"x_max":717,"ha":773,"o":"m 546 156 l 546 30 q 465 -1 507 10 q 388 -13 423 -13 q 214 30 292 -13 q 90 151 135 74 q 45 324 45 229 q 88 506 45 425 q 209 634 131 588 q 388 681 287 681 q 524 653 462 681 q 628 579 586 626 q 694 473 671 532 q 717 349 717 414 l 717 52 q 690 -109 717 -38 q 617 -224 664 -179 q 506 -293 570 -270 q 368 -317 442 -317 q 148 -278 268 -317 l 177 -167 q 280 -191 238 -183 q 363 -200 321 -200 q 527 -150 459 -200 q 595 10 595 -100 l 595 322 q 566 449 595 394 q 489 534 538 504 q 383 564 440 564 q 264 530 313 564 q 191 442 215 497 q 167 318 167 387 q 196 204 167 253 q 276 129 225 155 q 390 103 327 103 q 546 156 454 103 "},"–":{"x_min":0,"x_max":694,"ha":694,"o":"m 694 289 l 0 289 l 0 378 l 694 378 l 694 289 "},"ƒ":{"x_min":7.890625,"x_max":763.171875,"ha":772,"o":"m 172 478 l 172 600 l 373 600 l 402 737 q 453 879 420 824 q 533 961 485 934 q 645 989 581 989 q 763 970 698 989 l 741 852 q 662 867 700 867 q 527 723 557 867 l 502 600 l 694 600 l 694 478 l 481 478 l 393 -18 q 303 -245 364 -173 q 141 -317 242 -317 q 7 -297 56 -317 l 27 -175 q 116 -195 70 -195 q 209 -154 174 -195 q 260 -15 243 -113 l 346 478 l 172 478 "},"e":{"x_min":41,"x_max":733.90625,"ha":772,"o":"m 709 469 l 259 219 l 209 316 l 538 500 q 471 549 503 535 q 386 564 440 564 q 230 499 291 564 q 169 333 169 435 q 230 167 169 232 q 386 102 291 102 q 539 157 488 102 q 610 311 590 211 l 733 295 q 680 137 726 207 q 557 26 634 66 q 386 -14 480 -14 q 255 11 318 -14 q 143 83 192 36 q 68 194 95 130 q 41 333 41 257 q 67 472 41 409 q 144 583 94 535 q 255 656 193 631 q 386 681 318 681 q 581 625 500 681 q 709 469 661 570 "},"J":{"x_min":-3,"x_max":401,"ha":462,"o":"m 270 973 l 401 973 l 401 314 q 365 146 401 217 q 253 37 329 75 q 64 0 178 0 l -3 0 l -3 122 l 62 122 q 270 305 270 122 l 270 973 "},"|":{"x_min":100,"x_max":209,"ha":309,"o":"m 100 0 l 100 973 l 209 973 l 209 0 l 100 0 "},"^":{"x_min":77.984375,"x_max":755.484375,"ha":833,"o":"m 194 398 l 77 398 l 364 973 l 469 973 l 755 398 l 638 398 l 416 852 l 194 398 "},"q":{"x_min":36,"x_max":717,"ha":773,"o":"m 717 -300 l 595 -300 l 595 291 q 566 441 595 379 q 489 533 538 503 q 380 564 440 564 q 265 534 317 564 q 186 451 214 504 q 158 331 158 399 q 185 211 158 263 q 262 131 212 160 q 377 103 313 103 q 463 119 418 103 q 546 161 508 135 l 546 33 q 356 -13 463 -13 q 197 30 271 -13 q 80 150 124 74 q 36 316 36 225 q 77 499 36 415 q 197 632 119 583 q 380 681 275 681 q 516 654 455 681 q 623 580 578 628 q 692 463 667 531 q 717 313 717 394 l 717 -300 "},"b":{"x_min":56,"x_max":736,"ha":773,"o":"m 56 973 l 178 973 l 178 375 q 239 173 178 244 q 392 103 300 103 q 481 120 440 103 q 551 168 523 137 q 597 241 580 198 q 614 335 614 284 q 598 428 614 386 q 554 501 582 471 q 485 547 525 531 q 395 564 445 564 q 337 556 366 564 q 280 535 307 548 q 227 505 252 523 l 227 633 q 415 681 310 681 q 538 655 479 681 q 640 586 596 630 q 709 479 683 541 q 736 349 736 417 q 694 168 736 251 q 575 35 653 84 q 392 -13 496 -13 q 218 32 295 -13 q 99 161 142 77 q 56 352 56 245 l 56 973 "},"D":{"x_min":82,"x_max":804,"ha":848,"o":"m 212 0 l 82 0 l 82 973 l 327 973 q 516 934 427 973 q 668 829 605 895 q 768 674 732 762 q 804 486 804 585 q 768 300 804 388 q 668 144 733 212 q 516 38 604 76 q 327 0 427 0 l 268 0 l 268 122 l 339 122 q 503 170 427 122 q 623 301 579 218 q 668 486 668 385 q 640 633 668 566 q 562 748 612 700 q 442 823 512 797 q 291 850 371 850 l 212 850 l 212 0 "},"ﬂ":{"x_min":72,"x_max":608,"ha":694,"o":"m 195 0 l 72 0 l 72 729 q 102 858 72 802 q 185 943 132 913 q 308 973 239 973 l 411 973 l 411 856 l 325 856 q 195 732 195 856 l 195 667 l 395 667 l 395 550 l 195 550 l 195 0 m 608 0 l 486 0 l 486 973 l 608 973 l 608 0 "},"z":{"x_min":25,"x_max":505,"ha":540,"o":"m 505 116 l 505 0 l 124 0 q 51 22 77 0 q 25 87 25 45 q 39 144 25 118 q 91 216 54 170 l 364 550 l 49 550 l 49 667 l 372 667 q 467 643 434 667 q 500 578 500 620 q 479 505 500 530 l 161 116 l 505 116 "},"w":{"x_min":68,"x_max":934,"ha":1003,"o":"m 812 667 l 934 667 l 934 213 q 902 99 934 152 q 816 16 871 47 q 695 -13 761 -13 q 584 10 635 -13 q 501 80 533 33 q 417 10 469 34 q 307 -13 365 -13 q 185 17 240 -13 q 99 100 130 48 q 68 213 68 152 l 68 667 l 191 667 l 191 241 q 223 140 191 178 q 310 103 256 103 q 440 261 440 103 l 440 667 l 562 667 l 562 261 q 692 103 562 103 q 779 140 746 103 q 812 241 812 178 l 812 667 "},"$":{"x_min":119,"x_max":677,"ha":772,"o":"m 453 1087 l 453 973 l 640 973 l 640 856 l 453 856 l 453 610 q 540 552 498 580 q 610 498 582 524 q 658 431 639 472 q 677 334 677 390 q 614 183 677 233 q 453 134 552 134 l 453 -17 l 347 -17 l 347 134 l 124 134 l 124 250 l 347 250 l 347 517 q 239 585 294 549 q 151 664 183 620 q 119 775 119 708 q 136 859 119 822 q 185 922 153 897 q 257 960 216 947 q 347 973 298 973 l 347 1087 l 453 1087 m 347 653 l 347 856 q 241 768 241 856 q 270 706 241 732 q 347 653 300 679 m 453 468 l 453 250 q 525 272 496 250 q 555 339 555 294 q 545 382 555 363 q 522 415 536 402 q 489 442 509 429 q 453 468 470 456 "},"\\":{"x_min":-86.125,"x_max":472,"ha":386,"o":"m -86 989 l 22 989 l 472 -17 l 364 -17 l -86 989 "},"’":{"x_min":77.984375,"x_max":244.140625,"ha":309,"o":"m 180 692 l 77 692 l 127 973 l 244 973 l 180 692 "},"~":{"x_min":95.625,"x_max":737.171875,"ha":833,"o":"m 687 438 l 737 352 q 658 264 697 296 q 563 233 619 233 q 515 239 539 233 q 463 258 492 245 q 419 280 434 272 q 343 314 380 301 q 262 327 306 327 q 193 300 220 327 q 145 227 167 274 l 95 313 q 269 433 158 433 q 429 385 326 433 q 517 348 491 358 q 565 339 543 339 q 630 365 602 339 q 687 438 657 391 "},"-":{"x_min":37,"x_max":348,"ha":385,"o":"m 348 278 l 37 278 l 37 389 l 348 389 l 348 278 "},"Q":{"x_min":32,"x_max":1049,"ha":1081,"o":"m 634 -5 l 634 -200 l 503 -200 l 503 317 l 634 317 l 634 116 q 751 167 700 133 q 838 250 802 202 q 893 360 874 299 q 913 486 913 422 q 864 675 913 587 q 731 815 816 763 q 540 867 645 867 q 393 837 461 867 q 274 754 325 808 q 195 631 222 700 q 168 486 168 561 q 206 317 168 396 q 306 186 244 238 q 439 119 369 133 l 439 -5 q 282 54 356 11 q 151 162 208 97 q 63 310 95 228 q 32 486 32 392 q 72 681 32 588 q 183 843 112 774 q 346 950 255 912 q 540 989 437 989 q 735 950 643 989 q 898 842 827 911 q 1008 681 968 773 q 1049 486 1049 589 q 1015 310 1049 394 q 923 158 981 225 q 789 49 865 91 q 634 -5 714 6 "},"M":{"x_min":0,"x_max":1080.328125,"ha":1080,"o":"m 136 0 l 0 0 l 112 886 q 149 961 118 934 q 221 989 180 989 q 294 965 266 989 q 341 875 322 941 l 539 221 l 541 221 l 739 875 q 786 965 758 941 q 859 989 814 989 q 931 961 900 989 q 967 886 961 934 l 1080 0 l 944 0 l 851 789 l 848 789 l 640 111 q 599 21 619 42 q 541 0 578 0 l 539 0 q 481 21 501 0 q 440 111 461 42 l 231 789 l 229 789 l 136 0 "},"C":{"x_min":49,"x_max":660,"ha":695,"o":"m 660 973 l 660 850 l 571 850 q 418 822 488 850 q 295 746 347 795 q 213 630 242 697 q 185 486 185 563 q 236 284 185 366 q 366 162 287 202 q 521 122 444 122 l 660 122 l 660 0 l 520 0 q 279 63 388 0 q 110 238 171 126 q 49 486 49 350 q 111 719 49 606 q 290 902 174 831 q 556 973 407 973 l 660 973 "},"[":{"x_min":155,"x_max":397.359375,"ha":540,"o":"m 397 -244 l 155 -244 l 155 973 l 397 973 l 397 909 l 278 909 l 278 -180 l 397 -180 l 397 -244 "},"L":{"x_min":89,"x_max":543,"ha":540,"o":"m 89 973 l 220 973 l 220 345 q 240 221 220 271 q 305 146 261 171 q 416 122 349 122 l 543 122 l 543 0 l 397 0 q 234 40 304 0 q 126 151 164 80 q 89 314 89 223 l 89 973 "},"!":{"x_min":64,"x_max":236,"ha":309,"o":"m 209 223 l 92 223 l 92 973 l 209 973 l 209 223 m 64 70 q 88 130 64 105 q 150 156 112 156 q 211 130 187 156 q 236 70 236 104 q 211 9 236 35 q 150 -16 187 -16 q 88 9 112 -16 q 64 70 64 35 "}," ":{"x_min":0,"x_max":0,"ha":386},"ﬁ":{"x_min":72,"x_max":621,"ha":695,"o":"m 195 0 l 72 0 l 72 729 q 102 858 72 802 q 185 943 132 913 q 308 973 239 973 l 411 973 l 411 856 l 325 856 q 195 732 195 856 l 195 667 l 395 667 l 395 550 l 195 550 l 195 0 m 608 0 l 486 0 l 486 667 l 608 667 l 608 0 m 474 815 q 493 866 474 844 q 547 889 513 889 q 601 867 582 889 q 621 815 621 846 q 601 763 621 785 q 547 742 581 742 q 493 764 513 742 q 474 815 474 786 "},"{":{"x_min":46,"x_max":404,"ha":540,"o":"m 46 325 l 46 406 q 99 425 73 406 q 139 479 124 444 q 155 557 155 514 l 155 803 q 174 890 155 851 q 225 951 193 929 q 294 973 258 973 l 404 973 l 404 909 l 340 909 q 278 798 278 909 l 278 539 q 239 416 278 458 q 168 367 201 374 l 168 364 q 213 341 189 358 q 257 286 237 323 q 278 187 278 248 l 278 -68 q 340 -180 278 -180 l 404 -180 l 404 -244 l 294 -244 q 224 -222 256 -244 q 173 -161 192 -200 q 155 -74 155 -123 l 155 169 q 122 280 155 236 q 46 325 89 325 "},"X":{"x_min":5,"x_max":766,"ha":772,"o":"m 766 971 l 766 850 q 604 799 675 850 q 494 665 532 748 q 457 485 457 582 q 494 305 457 389 q 604 171 532 222 q 766 121 675 121 l 766 1 q 598 34 677 1 q 462 130 519 67 q 387 278 405 193 l 384 278 q 308 130 365 193 q 172 34 251 68 q 5 1 93 1 l 5 121 q 132 150 73 121 q 230 230 190 180 q 292 348 270 281 q 315 485 315 415 q 292 623 315 556 q 230 741 270 690 q 133 820 190 791 q 5 850 75 850 l 5 971 q 171 937 91 971 q 308 841 251 903 q 384 694 365 779 l 387 694 q 462 840 405 778 q 599 937 519 903 q 766 971 679 971 "},"P":{"x_min":56,"x_max":688,"ha":695,"o":"m 186 0 l 56 0 l 56 649 q 98 829 56 752 q 212 947 140 906 q 367 989 283 989 q 499 963 440 989 q 600 895 559 938 q 665 795 642 851 q 688 676 688 739 q 667 556 688 613 q 609 457 646 500 q 521 390 571 414 q 414 367 471 367 l 238 367 l 238 489 l 376 489 q 506 539 456 489 q 557 676 557 589 q 503 815 557 763 q 368 867 449 867 q 237 812 288 867 q 186 666 186 757 l 186 0 "},"%":{"x_min":64,"x_max":1136,"ha":1235,"o":"m 173 761 q 208 676 173 710 q 292 642 244 642 q 375 675 340 642 q 411 761 411 709 q 394 821 411 794 q 351 864 378 848 q 292 880 323 880 q 232 864 260 880 q 189 821 205 848 q 173 761 173 794 m 965 989 l 319 -17 l 233 -17 l 879 989 l 965 989 m 789 211 q 824 126 789 160 q 908 92 860 92 q 992 125 956 92 q 1028 211 1028 159 q 1011 271 1028 244 q 968 314 995 298 q 908 330 940 330 q 848 314 876 330 q 805 271 821 298 q 789 211 789 244 m 64 761 q 96 879 64 826 q 181 960 128 931 q 291 989 234 989 q 402 960 349 989 q 487 879 455 931 q 520 761 520 826 q 487 642 520 694 q 402 561 454 590 q 291 533 349 533 q 181 561 234 533 q 96 642 129 590 q 64 761 64 694 m 681 211 q 712 328 681 276 q 797 409 744 380 q 908 439 850 439 q 1018 410 965 439 q 1103 329 1071 381 q 1136 211 1136 276 q 1103 92 1136 144 q 1018 11 1070 40 q 908 -17 965 -17 q 797 11 850 -17 q 712 92 744 40 q 681 211 681 145 "},"#":{"x_min":47,"x_max":726,"ha":773,"o":"m 686 386 l 686 297 l 548 297 l 507 0 l 407 0 l 449 297 l 283 297 l 241 0 l 141 0 l 183 297 l 47 297 l 47 386 l 196 386 l 224 586 l 87 586 l 87 675 l 236 675 l 276 973 l 378 973 l 336 675 l 501 675 l 542 973 l 643 973 l 601 675 l 726 675 l 726 586 l 589 586 l 561 386 l 686 386 m 489 586 l 323 586 l 295 386 l 461 386 l 489 586 "},"_":{"x_min":0,"x_max":694,"ha":694,"o":"m 694 -174 l 0 -174 l 0 -105 l 694 -105 l 694 -174 "},"+":{"x_min":83,"x_max":750,"ha":833,"o":"m 362 387 l 362 667 l 470 667 l 470 387 l 750 387 l 750 279 l 470 279 l 470 0 l 362 0 l 362 279 l 83 279 l 83 387 l 362 387 "},"‚":{"x_min":50.1875,"x_max":216.34375,"ha":309,"o":"m 152 -142 l 50 -142 l 99 139 l 216 139 l 152 -142 "},")":{"x_min":85.140625,"x_max":441,"ha":541,"o":"m 85 905 l 135 989 q 301 818 232 920 q 406 600 371 717 q 441 359 441 483 q 421 181 441 269 q 364 11 402 92 q 270 -139 326 -69 q 140 -261 213 -210 l 85 -185 q 223 -36 167 -120 q 305 144 279 47 q 332 352 332 241 q 306 565 332 464 q 225 753 280 667 q 85 905 171 839 "},"'":{"x_min":97,"x_max":211,"ha":309,"o":"m 97 598 l 97 973 l 211 973 l 211 598 l 97 598 "},"}":{"x_min":136,"x_max":494,"ha":540,"o":"m 494 404 l 494 323 q 417 280 450 323 q 384 171 384 237 l 384 -74 q 343 -196 384 -148 q 245 -244 303 -244 l 136 -244 l 136 -180 l 199 -180 q 262 -68 262 -180 l 262 189 q 299 312 262 270 q 372 361 337 354 l 372 365 q 298 415 334 374 q 262 541 262 455 l 262 798 q 199 909 262 909 l 136 909 l 136 973 l 245 973 q 314 951 282 973 q 365 890 346 929 q 384 803 384 852 l 384 559 q 417 448 384 492 q 494 404 451 404 "},"‰":{"x_min":-16,"x_max":1415,"ha":1389,"o":"m 1068 211 q 1103 126 1068 160 q 1187 92 1139 92 q 1270 125 1235 92 q 1306 211 1306 159 q 1289 271 1306 244 q 1246 314 1273 298 q 1187 330 1218 330 q 1127 314 1155 330 q 1084 271 1100 298 q 1068 211 1068 244 m 824 989 l 178 -17 l 93 -17 l 738 989 l 824 989 m 93 761 q 128 676 93 710 q 212 642 163 642 q 295 675 260 642 q 331 761 331 709 q 315 821 331 794 q 271 864 299 848 q 212 880 244 880 q 152 864 180 880 q 109 821 125 848 q 93 761 93 794 m 959 211 q 991 329 959 276 q 1076 410 1023 381 q 1186 439 1129 439 q 1297 410 1244 439 q 1382 329 1350 381 q 1415 211 1415 276 q 1382 92 1415 144 q 1297 11 1349 40 q 1186 -17 1244 -17 q 1076 11 1129 -17 q 991 92 1024 40 q 959 211 959 144 m -16 761 q 16 879 -16 826 q 101 960 48 931 q 212 989 154 989 q 322 960 269 989 q 407 879 375 931 q 440 761 440 826 q 407 642 440 694 q 322 561 374 590 q 212 533 269 533 q 101 561 154 533 q 16 642 49 590 q -16 761 -16 694 m 574 211 q 609 126 574 160 q 693 92 644 92 q 776 125 741 92 q 812 211 812 159 q 795 271 812 244 q 752 314 779 298 q 693 330 724 330 q 633 314 661 330 q 590 271 606 298 q 574 211 574 244 m 465 211 q 497 329 465 276 q 582 410 529 381 q 693 439 635 439 q 803 410 750 439 q 888 329 856 381 q 921 211 921 276 q 888 92 921 144 q 803 11 855 40 q 693 -17 750 -17 q 582 11 635 -17 q 497 92 530 40 q 465 211 465 144 "},"a":{"x_min":36,"x_max":717,"ha":773,"o":"m 717 0 l 595 0 l 595 375 q 564 477 595 435 q 485 542 534 520 q 377 564 436 564 q 261 532 312 564 q 184 446 211 500 q 158 330 158 392 q 185 217 158 269 q 264 133 213 164 q 376 103 314 103 q 545 194 472 103 l 545 50 q 462 2 502 18 q 364 -13 422 -13 q 234 13 295 -13 q 128 89 173 39 q 59 203 83 138 q 36 340 36 268 q 78 513 36 436 q 198 636 120 591 q 380 681 276 681 q 520 658 458 681 q 626 594 582 636 q 693 494 670 552 q 717 364 717 435 l 717 0 "},"T":{"x_min":3,"x_max":614,"ha":617,"o":"m 3 850 l 3 973 l 614 973 l 614 850 l 374 850 l 374 0 l 243 0 l 243 850 l 3 850 "},"—":{"x_min":0,"x_max":1389,"ha":1389,"o":"m 1389 289 l 0 289 l 0 378 l 1389 378 l 1389 289 "},"=":{"x_min":83,"x_max":750,"ha":833,"o":"m 750 526 l 750 417 l 83 417 l 83 526 l 750 526 m 750 251 l 750 142 l 83 142 l 83 251 l 750 251 "},"N":{"x_min":69,"x_max":778,"ha":849,"o":"m 200 0 l 69 0 l 69 861 q 100 951 69 922 q 183 981 131 981 q 264 949 235 981 q 331 838 293 918 l 644 192 l 647 192 l 647 973 l 778 973 l 778 84 q 752 18 778 44 q 677 -8 727 -8 q 602 11 630 -8 q 548 86 575 30 l 202 798 l 200 798 l 200 0 "},"⁄":{"x_min":-231.9375,"x_max":463.875,"ha":232,"o":"m -136 -17 l -231 -17 l 368 989 l 463 989 l -136 -17 "},"2":{"x_min":45,"x_max":713,"ha":773,"o":"m 708 122 l 708 0 l 175 0 q 78 27 112 0 q 45 103 45 54 q 60 157 45 137 q 132 221 76 176 l 473 489 q 549 574 519 525 q 579 681 579 622 q 553 777 579 734 q 484 843 528 819 q 387 867 441 867 q 243 810 295 867 q 191 661 191 754 q 245 537 191 588 q 373 478 300 485 l 259 387 q 149 452 196 411 q 80 551 103 494 q 57 679 57 607 q 104 841 57 771 q 231 950 151 912 q 401 989 310 989 q 557 948 485 989 q 671 836 629 907 q 713 682 713 765 q 686 548 713 607 q 611 441 659 489 q 490 336 563 393 l 220 124 l 220 122 l 708 122 "},"j":{"x_min":-90,"x_max":229,"ha":308,"o":"m 94 667 l 216 667 l 216 -57 q 196 -168 216 -122 q 140 -244 176 -214 q 55 -286 103 -273 q -54 -300 7 -300 l -90 -300 l -90 -183 l -58 -183 q 35 -170 2 -183 q 80 -125 67 -157 q 94 -30 94 -93 l 94 667 m 82 815 q 101 866 82 844 q 155 889 121 889 q 209 866 189 889 q 229 815 229 844 q 209 764 229 786 q 155 742 189 742 q 101 764 121 742 q 82 815 82 786 "},"Z":{"x_min":17,"x_max":665,"ha":694,"o":"m 514 850 l 68 850 l 68 973 l 536 973 q 622 948 595 973 q 650 889 650 924 q 593 739 650 816 l 158 122 l 665 122 l 665 0 l 122 0 q 45 29 73 0 q 17 94 17 58 q 32 168 17 135 q 76 241 47 200 l 514 850 "},"u":{"x_min":62,"x_max":632,"ha":694,"o":"m 510 667 l 632 667 l 632 278 q 595 126 632 192 q 492 22 558 59 q 347 -13 427 -13 q 201 22 266 -13 q 98 126 135 59 q 62 278 62 192 l 62 667 l 184 667 l 184 278 q 206 187 184 227 q 265 125 228 147 q 346 103 303 103 q 428 125 390 103 q 487 187 465 147 q 510 278 510 227 l 510 667 "},"1":{"x_min":154.03125,"x_max":463,"ha":773,"o":"m 190 973 l 463 973 l 463 0 l 329 0 l 329 850 l 154 850 l 190 973 "},"›":{"x_min":80.703125,"x_max":366.890625,"ha":463,"o":"m 261 333 l 88 547 l 194 547 l 366 333 l 185 119 l 80 119 l 261 333 "},"k":{"x_min":72,"x_max":603.328125,"ha":617,"o":"m 195 0 l 72 0 l 72 973 l 195 973 l 195 419 l 245 419 q 348 469 318 419 l 464 667 l 603 667 l 515 516 q 464 437 491 472 q 411 394 437 401 l 411 391 q 525 329 487 377 q 564 195 564 282 l 564 0 l 442 0 l 442 181 q 412 272 442 241 q 334 302 383 302 l 195 302 l 195 0 "},"€":{"x_min":47,"x_max":743,"ha":772,"o":"m 590 342 l 292 342 q 421 179 332 236 q 604 122 510 122 l 743 122 l 743 0 l 603 0 q 402 42 496 0 q 243 163 308 85 q 150 342 179 241 l 47 342 l 47 457 l 132 457 q 132 472 132 466 q 132 486 132 478 q 134 541 132 522 l 47 541 l 47 656 l 164 656 q 266 816 199 743 q 429 930 333 888 q 639 973 524 973 l 743 973 l 743 850 l 654 850 q 545 836 597 850 q 447 798 492 823 q 366 736 401 772 q 308 656 330 699 l 590 656 l 590 541 l 271 541 q 268 486 268 513 q 268 472 268 478 q 268 457 268 466 l 590 457 l 590 342 "},"<":{"x_min":83,"x_max":750,"ha":833,"o":"m 750 97 l 750 -10 l 83 286 l 83 380 l 750 677 l 750 569 l 218 333 l 750 97 "},"t":{"x_min":82,"x_max":443,"ha":463,"o":"m 442 667 l 442 550 l 204 550 l 204 200 q 225 135 204 154 q 295 116 247 116 l 443 116 l 443 0 l 279 0 q 134 58 186 0 q 82 215 82 116 l 82 833 l 204 833 l 204 667 l 442 667 "},"W":{"x_min":68,"x_max":1164,"ha":1234,"o":"m 68 291 l 68 973 l 199 973 l 199 291 q 244 156 199 207 q 375 106 289 106 q 505 156 460 106 q 551 291 551 206 l 551 973 l 682 973 l 682 291 q 727 156 682 207 q 858 106 772 106 q 988 156 943 106 q 1034 291 1034 206 l 1034 973 l 1164 973 l 1164 291 q 1123 127 1164 198 q 1017 19 1083 56 q 876 -17 951 -17 q 726 11 789 -17 q 616 110 663 39 q 505 11 569 39 q 355 -17 442 -17 q 249 4 301 -17 q 156 65 197 25 q 91 163 114 105 q 68 291 68 221 "},"v":{"x_min":-18.3125,"x_max":636.125,"ha":616,"o":"m 502 667 l 636 667 l 402 53 q 366 0 387 12 q 308 -14 344 -14 q 250 0 271 -14 q 213 53 229 12 l -18 667 l 115 667 l 309 149 l 502 667 "},">":{"x_min":83,"x_max":750,"ha":833,"o":"m 83 97 l 613 333 l 83 569 l 83 677 l 750 380 l 750 286 l 83 -10 l 83 97 "},"s":{"x_min":38.859375,"x_max":587.5,"ha":617,"o":"m 38 0 l 38 116 l 380 116 q 460 180 460 116 q 419 237 460 220 q 264 288 378 254 q 95 366 151 322 q 39 486 39 409 q 98 621 39 575 q 266 667 157 667 l 554 667 l 554 550 l 245 550 q 185 537 202 550 q 168 491 168 523 q 243 428 168 453 q 396 379 319 403 q 529 311 472 356 q 587 185 587 266 q 530 47 587 95 q 380 0 472 0 l 38 0 "},"B":{"x_min":82,"x_max":750,"ha":772,"o":"m 212 0 l 82 0 l 82 689 q 104 802 82 748 q 169 898 127 856 q 267 964 211 940 q 389 989 324 989 q 554 956 484 989 q 665 862 625 923 q 705 717 705 800 q 608 521 705 581 q 716 420 682 478 q 750 275 750 363 q 712 130 750 192 q 608 33 675 67 q 458 0 542 0 l 262 0 l 262 122 l 424 122 q 619 282 619 122 q 568 401 619 360 q 424 442 518 442 l 262 442 l 262 564 l 398 564 q 495 583 455 564 q 554 636 534 603 q 575 711 575 669 q 551 796 575 761 q 488 849 528 831 q 401 867 448 867 q 298 843 340 867 q 234 777 256 820 q 212 677 212 734 l 212 0 "},"…":{"x_min":150,"x_max":1240,"ha":1390,"o":"m 150 74 q 174 132 150 109 q 232 156 198 156 q 289 132 265 156 q 314 74 314 109 q 289 16 314 40 q 232 -8 265 -8 q 174 16 198 -8 q 150 74 150 40 m 613 74 q 637 132 613 109 q 695 156 661 156 q 752 132 728 156 q 777 74 777 109 q 752 16 777 40 q 695 -8 728 -8 q 637 16 661 -8 q 613 74 613 40 m 1076 74 q 1100 132 1076 109 q 1158 156 1124 156 q 1215 132 1191 156 q 1240 74 1240 109 q 1215 16 1240 40 q 1158 -8 1191 -8 q 1100 16 1124 -8 q 1076 74 1076 40 "},"?":{"x_min":36,"x_max":608,"ha":616,"o":"m 168 681 l 36 681 q 72 837 36 767 q 176 948 109 908 q 330 989 244 989 q 435 967 385 989 q 525 906 486 945 q 586 813 564 866 q 608 702 608 760 q 576 563 608 626 q 490 461 545 501 q 364 410 434 422 l 364 223 l 241 223 l 241 528 l 277 528 q 428 573 378 528 q 478 697 478 619 q 458 782 478 743 q 403 844 439 821 q 320 867 368 867 q 206 814 245 867 q 168 681 168 762 m 217 69 q 241 128 217 102 q 303 155 266 155 q 364 129 340 155 q 389 69 389 103 q 364 8 389 34 q 303 -17 340 -17 q 242 9 267 -17 q 217 69 217 35 "},"H":{"x_min":82,"x_max":765,"ha":848,"o":"m 212 0 l 82 0 l 82 973 l 212 973 l 212 564 l 635 564 l 635 973 l 765 973 l 765 0 l 635 0 l 635 442 l 212 442 l 212 0 "},"c":{"x_min":60,"x_max":512,"ha":541,"o":"m 512 667 l 512 550 l 416 550 q 304 525 357 550 q 220 449 252 500 q 187 333 187 399 q 256 175 187 233 q 416 116 324 116 l 512 116 l 512 0 l 395 0 q 237 39 314 0 q 109 156 159 79 q 60 333 60 232 q 88 471 60 409 q 166 577 117 534 q 276 644 216 621 q 395 667 336 667 l 512 667 "},"&":{"x_min":46,"x_max":913.046875,"ha":927,"o":"m 687 973 l 687 850 l 302 850 q 275 832 275 850 q 305 775 275 814 l 710 258 q 741 380 741 301 q 719 481 741 432 q 647 588 698 529 l 737 681 q 811 589 782 633 q 855 494 840 546 q 871 382 871 443 q 796 147 871 254 l 913 0 l 754 0 l 703 54 q 455 -17 605 -17 q 248 34 342 -17 q 100 176 154 85 q 46 379 46 267 q 64 504 46 444 q 121 616 83 564 q 210 702 159 667 q 161 772 179 741 q 144 839 144 803 q 183 937 144 901 q 284 973 223 973 l 687 973 m 631 161 l 289 604 q 210 506 238 565 q 182 382 182 447 q 217 243 182 306 q 315 142 253 179 q 454 106 378 106 q 550 118 507 106 q 631 161 593 131 "},"I":{"x_min":89,"x_max":220,"ha":309,"o":"m 220 0 l 89 0 l 89 973 l 220 973 l 220 0 "},"•":{"x_min":104,"x_max":590,"ha":694,"o":"m 104 486 q 122 580 104 536 q 174 658 141 625 q 252 710 207 691 q 347 730 297 730 q 442 711 397 730 q 520 659 486 692 q 572 580 554 625 q 590 486 590 536 q 558 363 590 419 q 469 275 526 308 q 347 243 412 243 q 224 275 281 243 q 135 363 167 308 q 104 486 104 419 "},"G":{"x_min":32,"x_max":1034,"ha":1081,"o":"m 942 814 l 854 719 q 746 804 787 775 q 656 849 706 832 q 540 867 606 867 q 393 837 461 867 q 274 754 325 808 q 195 631 223 700 q 168 486 168 561 q 195 341 168 411 q 273 218 223 271 q 393 136 323 166 q 541 106 462 106 q 715 144 634 106 q 845 256 796 183 q 895 425 895 328 l 558 425 l 558 547 l 1034 547 l 1034 463 q 990 259 1034 351 q 877 107 947 168 q 718 14 806 46 q 540 -17 630 -17 q 347 21 440 -17 q 183 129 255 59 q 72 292 112 199 q 32 486 32 385 q 72 681 32 588 q 183 843 112 773 q 346 950 255 912 q 540 989 437 989 q 755 948 662 989 q 942 814 848 908 "},"(":{"x_min":100,"x_max":456.53125,"ha":541,"o":"m 456 -177 l 406 -261 q 239 -91 309 -192 q 135 127 170 9 q 100 368 100 245 q 119 543 100 453 q 177 717 138 633 q 273 870 216 800 q 400 989 329 939 l 456 914 q 270 678 331 815 q 209 375 209 542 q 269 62 209 204 q 456 -177 330 -79 "},"`":{"x_min":9.5,"x_max":284.828125,"ha":386,"o":"m 9 945 l 160 945 l 284 748 l 190 748 l 9 945 "},"U":{"x_min":64,"x_max":707,"ha":773,"o":"m 64 973 l 195 973 l 195 333 q 244 169 195 232 q 384 106 293 106 q 488 135 444 106 q 554 215 532 164 q 577 333 577 267 l 577 973 l 707 973 l 707 319 q 664 149 707 227 q 548 27 622 71 q 384 -17 474 -17 q 222 27 295 -17 q 106 149 148 71 q 64 319 64 227 l 64 973 "},"◊":{"x_min":31.875,"x_max":655.796875,"ha":686,"o":"m 372 965 l 655 481 l 372 0 l 297 0 l 31 481 l 297 965 l 372 965 m 335 899 l 105 481 l 335 63 l 579 481 l 335 899 "},"F":{"x_min":39,"x_max":502,"ha":541,"o":"m 170 0 l 39 0 l 39 645 q 74 822 39 748 q 179 934 110 895 q 341 973 248 973 l 502 973 l 502 850 l 360 850 q 170 660 170 850 l 170 545 l 502 545 l 502 423 l 170 423 l 170 0 "},"r":{"x_min":61,"x_max":388.484375,"ha":386,"o":"m 61 0 l 61 667 l 177 667 l 177 590 l 180 590 q 254 659 210 638 q 360 681 297 681 l 388 681 l 388 564 l 370 564 q 183 311 183 564 l 183 0 l 61 0 "},":":{"x_min":111,"x_max":275,"ha":386,"o":"m 111 74 q 135 132 111 109 q 193 156 159 156 q 250 132 226 156 q 275 74 275 109 q 250 16 275 40 q 193 -8 226 -8 q 135 16 159 -8 q 111 74 111 40 m 111 473 q 135 531 111 507 q 193 556 159 556 q 250 531 226 556 q 275 473 275 507 q 250 416 275 440 q 193 392 226 392 q 135 416 159 392 q 111 473 111 440 "},"x":{"x_min":9,"x_max":530,"ha":540,"o":"m 9 0 l 9 117 q 86 134 49 117 q 152 182 124 151 q 194 252 179 212 q 209 333 209 291 q 194 415 209 375 q 152 484 179 454 q 87 531 124 514 q 9 549 51 549 l 9 664 q 166 621 99 664 q 268 499 233 578 q 370 621 296 576 q 530 667 444 667 l 530 548 q 388 485 445 548 q 331 333 331 422 q 388 182 331 246 q 530 119 446 119 l 530 0 q 379 39 447 0 q 268 155 312 79 q 161 39 226 78 q 9 0 96 0 "},"*":{"x_min":86.125,"x_max":608.3125,"ha":694,"o":"m 139 519 l 86 605 l 269 704 l 86 800 l 139 886 l 311 770 l 294 973 l 400 973 l 383 770 l 555 886 l 608 800 l 425 704 l 608 605 l 555 519 l 383 630 l 400 436 l 294 436 l 311 630 l 139 519 "},"†":{"x_min":90,"x_max":604,"ha":694,"o":"m 90 728 l 317 686 l 281 973 l 411 973 l 375 686 l 604 728 l 604 595 l 375 636 l 414 403 q 388 196 404 362 q 373 -80 373 30 l 373 -186 l 312 -186 l 312 -80 q 312 99 312 -7 q 298 289 312 205 q 278 403 284 373 l 317 636 l 90 595 l 90 728 "},"V":{"x_min":-19.671875,"x_max":791.421875,"ha":772,"o":"m -19 973 l 116 973 l 389 170 l 393 170 l 657 973 l 791 973 l 509 97 q 461 8 489 34 q 393 -17 434 -17 q 325 8 352 -17 q 276 97 299 33 l -19 973 "},"h":{"x_min":62,"x_max":632,"ha":694,"o":"m 184 0 l 62 0 l 62 973 l 184 973 l 184 608 q 258 660 213 640 q 355 681 302 681 q 632 388 632 681 l 632 0 l 510 0 l 510 388 q 346 564 510 564 q 231 514 279 564 q 184 388 184 465 l 184 0 "},"0":{"x_min":46,"x_max":726,"ha":772,"o":"m 46 341 l 46 630 q 73 779 46 711 q 147 893 100 847 q 255 964 193 939 q 385 989 316 989 q 555 945 477 989 q 679 819 633 901 q 726 630 726 737 l 726 341 q 679 152 726 234 q 555 26 633 70 q 385 -17 477 -17 q 257 7 318 -17 q 148 78 195 31 q 73 193 100 126 q 46 341 46 261 m 187 631 l 187 341 q 238 173 187 233 q 385 114 290 114 q 532 173 481 114 q 584 341 584 233 l 584 631 q 532 799 584 740 q 385 859 481 859 q 238 799 290 859 q 187 631 187 740 "},".":{"x_min":111,"x_max":275,"ha":386,"o":"m 111 74 q 135 132 111 109 q 193 156 159 156 q 250 132 226 156 q 275 74 275 109 q 250 16 275 40 q 193 -8 226 -8 q 135 16 159 -8 q 111 74 111 40 "},"”":{"x_min":58.328125,"x_max":482.171875,"ha":541,"o":"m 161 692 l 58 692 l 108 973 l 225 973 l 161 692 m 417 692 l 315 692 l 365 973 l 482 973 l 417 692 "},"@":{"x_min":71,"x_max":1041,"ha":1112,"o":"m 389 419 q 420 329 389 364 q 500 294 451 294 q 596 332 553 294 q 665 429 639 371 q 691 540 691 487 q 676 600 691 572 q 635 645 660 628 q 581 662 611 662 q 483 624 527 662 q 414 530 439 587 q 389 419 389 472 m 730 667 l 755 745 l 853 745 l 753 380 q 740 317 740 332 q 766 283 740 283 q 852 322 810 283 q 920 425 893 361 q 947 557 947 488 q 918 701 947 637 q 840 809 890 764 q 722 876 789 853 q 577 900 655 900 q 370 844 462 900 q 227 692 278 788 q 177 482 177 596 q 208 319 177 396 q 295 188 239 243 q 427 102 351 133 q 589 72 502 72 q 706 88 648 72 q 813 135 764 105 q 902 211 863 166 l 999 211 q 889 87 954 138 q 746 9 824 36 q 583 -17 668 -17 q 384 20 478 -17 q 219 129 290 58 q 110 290 149 199 q 71 487 71 382 q 139 740 71 625 q 324 922 207 855 q 577 989 441 989 q 754 959 669 989 q 902 873 838 929 q 1004 742 967 818 q 1041 575 1041 665 q 1007 412 1041 486 q 923 290 974 339 q 814 215 871 241 q 713 189 758 189 q 655 208 678 189 q 633 268 633 228 l 629 268 q 556 211 597 234 q 473 189 515 189 q 330 253 388 189 q 272 407 272 317 q 310 579 272 496 q 418 715 349 663 q 575 767 488 767 q 730 667 682 767 "},"f":{"x_min":72,"x_max":411,"ha":386,"o":"m 195 0 l 72 0 l 72 729 q 102 858 72 802 q 185 943 132 913 q 308 973 239 973 l 411 973 l 411 856 l 325 856 q 195 732 195 856 l 195 667 l 395 667 l 395 550 l 195 550 l 195 0 "},";":{"x_min":85.90625,"x_max":275,"ha":386,"o":"m 85 -139 l 144 134 l 275 134 l 194 -139 l 85 -139 m 111 473 q 135 531 111 507 q 193 556 159 556 q 250 531 226 556 q 275 473 275 507 q 250 416 275 440 q 193 392 226 392 q 135 416 159 392 q 111 473 111 440 "},"“":{"x_min":58.328125,"x_max":482.171875,"ha":541,"o":"m 174 973 l 225 692 l 122 692 l 58 973 l 174 973 m 432 973 l 482 692 l 379 692 l 315 973 l 432 973 "},"i":{"x_min":119,"x_max":266,"ha":385,"o":"m 254 0 l 132 0 l 132 667 l 254 667 l 254 0 m 119 815 q 138 866 119 844 q 192 889 158 889 q 246 866 227 889 q 266 815 266 844 q 246 764 266 786 q 192 742 226 742 q 138 764 158 742 q 119 815 119 786 "},"6":{"x_min":33,"x_max":739,"ha":772,"o":"m 333 571 l 409 680 q 551 652 490 680 q 654 578 613 625 q 717 469 696 531 q 739 330 739 406 q 691 161 739 241 q 562 31 644 80 q 380 -17 479 -17 q 246 9 309 -17 q 135 83 184 35 q 60 194 87 130 q 33 329 33 257 q 48 440 33 390 q 89 532 64 491 q 160 636 114 573 l 397 973 l 557 973 l 255 547 q 187 432 208 480 q 167 318 167 384 q 196 212 167 261 q 276 135 225 164 q 382 106 326 106 q 492 135 441 106 q 574 216 543 164 q 605 327 605 268 q 569 462 605 406 q 474 544 534 517 q 333 571 413 571 "},"A":{"x_min":54,"x_max":718,"ha":772,"o":"m 184 0 l 54 0 l 54 616 q 79 771 54 702 q 148 888 104 840 q 253 962 192 936 q 385 989 315 989 q 517 963 456 989 q 623 888 578 937 q 693 771 668 840 q 718 616 718 702 l 718 0 l 587 0 l 587 442 l 237 442 l 237 564 l 587 564 l 587 625 q 561 755 587 700 q 491 838 536 810 q 385 867 445 867 q 239 802 295 867 q 184 625 184 738 l 184 0 "},"‘":{"x_min":63.75,"x_max":230.578125,"ha":309,"o":"m 180 973 l 230 692 l 127 692 l 63 973 l 180 973 "},"n":{"x_min":62,"x_max":632,"ha":694,"o":"m 184 0 l 62 0 l 62 388 q 98 540 62 473 q 201 644 135 607 q 347 681 266 681 q 492 644 427 681 q 595 540 558 607 q 632 388 632 473 l 632 0 l 510 0 l 510 388 q 487 479 510 439 q 428 541 465 519 q 346 564 390 564 q 265 541 303 564 q 206 479 228 519 q 184 388 184 439 l 184 0 "},"O":{"x_min":32,"x_max":1049,"ha":1081,"o":"m 32 486 q 72 681 32 588 q 183 843 112 773 q 346 950 255 912 q 540 989 437 989 q 735 950 643 989 q 897 843 827 911 q 1008 683 967 775 q 1049 486 1049 591 q 1008 290 1049 382 q 897 129 968 198 q 734 21 827 60 q 540 -17 641 -17 q 347 21 440 -17 q 183 129 255 59 q 72 292 112 199 q 32 486 32 385 m 168 486 q 195 341 168 411 q 273 218 223 271 q 392 136 323 166 q 540 106 461 106 q 689 136 620 106 q 807 218 758 166 q 885 340 857 270 q 913 486 913 409 q 864 675 913 587 q 731 815 816 763 q 540 867 645 867 q 393 837 461 867 q 274 754 325 808 q 195 631 222 700 q 168 486 168 561 "},"3":{"x_min":62,"x_max":709,"ha":771,"o":"m 62 0 l 62 122 l 382 122 q 487 146 444 122 q 553 212 531 170 q 575 305 575 254 q 514 425 575 379 q 347 472 454 472 l 197 472 l 197 569 l 499 850 l 84 850 l 84 973 l 504 973 q 642 866 642 973 q 633 822 642 842 q 609 783 624 801 q 566 740 595 765 q 524 705 537 715 l 395 593 q 557 558 485 593 q 668 458 628 523 q 709 310 709 394 q 687 184 709 242 q 624 84 665 126 q 531 21 584 43 q 418 0 478 0 l 62 0 "},"]":{"x_min":142.640625,"x_max":384,"ha":540,"o":"m 142 973 l 384 973 l 384 -244 l 142 -244 l 142 -180 l 262 -180 l 262 909 l 142 909 l 142 973 "},"m":{"x_min":68,"x_max":934,"ha":1003,"o":"m 191 0 l 68 0 l 68 453 q 99 567 68 514 q 185 650 131 619 q 307 681 240 681 q 417 656 366 681 q 501 586 469 632 q 584 656 533 632 q 695 681 635 681 q 791 663 747 681 q 865 614 834 645 q 915 542 897 584 q 934 453 934 500 l 934 0 l 812 0 l 812 425 q 779 527 812 490 q 692 564 746 564 q 562 405 562 564 l 562 0 l 440 0 l 440 405 q 310 564 440 564 q 223 527 256 564 q 191 425 191 490 l 191 0 "},"9":{"x_min":33,"x_max":739,"ha":772,"o":"m 438 402 l 362 292 q 183 338 257 292 q 70 463 108 384 q 33 640 33 543 q 79 810 33 730 q 209 940 126 891 q 391 989 292 989 q 526 962 462 989 q 637 890 589 936 q 711 779 684 843 q 739 642 739 716 q 723 531 739 582 q 682 440 707 481 q 611 336 657 399 l 374 0 l 213 0 l 516 425 q 584 541 564 492 q 605 654 605 589 q 575 760 605 711 q 495 838 545 809 q 388 867 445 867 q 304 850 344 867 q 232 800 263 833 q 183 728 200 768 q 167 644 167 687 q 187 539 167 585 q 244 462 207 492 q 330 416 280 431 q 438 402 380 402 "},"l":{"x_min":93,"x_max":215,"ha":309,"o":"m 215 0 l 93 0 l 93 973 l 215 973 l 215 0 "},"8":{"x_min":40,"x_max":732,"ha":773,"o":"m 40 291 q 81 437 40 372 q 196 550 123 503 q 145 606 165 578 q 114 667 125 634 q 104 747 104 701 q 138 863 104 806 q 238 954 173 919 q 385 989 303 989 q 527 959 464 989 q 627 875 591 929 q 663 747 663 820 q 576 550 663 636 q 691 446 650 510 q 732 291 732 382 q 709 175 732 230 q 641 75 686 119 q 531 7 596 31 q 385 -17 466 -17 q 200 25 278 -17 q 81 139 122 68 q 40 291 40 210 m 182 293 q 238 157 182 209 q 386 106 295 106 q 533 157 476 106 q 590 293 590 208 q 533 429 590 377 q 386 481 476 481 q 238 428 295 481 q 182 293 182 376 m 245 734 q 283 641 245 679 q 383 603 322 603 q 482 641 443 603 q 521 734 521 679 q 504 801 521 771 q 455 849 487 831 q 383 867 424 867 q 310 849 341 867 q 261 801 278 831 q 245 734 245 771 "},"p":{"x_min":56,"x_max":736,"ha":773,"o":"m 178 -300 l 56 -300 l 56 313 q 99 505 56 421 q 218 635 142 589 q 392 681 295 681 q 574 632 496 681 q 694 499 653 583 q 736 316 736 415 q 710 188 736 249 q 640 82 684 126 q 538 12 597 37 q 415 -13 479 -13 q 227 33 309 -13 l 227 161 q 309 119 264 135 q 395 103 354 103 q 509 131 460 103 q 586 211 559 160 q 614 331 614 263 q 597 425 614 384 q 552 499 581 467 q 481 547 523 530 q 392 564 440 564 q 239 493 300 564 q 178 291 178 422 l 178 -300 "},"4":{"x_min":14,"x_max":734,"ha":773,"o":"m 368 973 l 513 973 l 163 347 l 455 347 l 455 766 l 577 975 q 586 989 584 989 q 588 970 588 989 l 588 347 l 734 347 l 734 225 l 588 225 l 588 0 l 455 0 l 455 225 l 107 225 q 39 246 64 225 q 14 305 14 267 q 19 334 14 320 q 36 371 24 349 q 56 406 47 392 l 368 973 "},"‡":{"x_min":90,"x_max":604,"ha":694,"o":"m 279 973 l 414 973 l 376 686 l 604 728 l 604 595 l 376 636 l 414 393 l 376 149 l 604 193 l 604 58 l 376 99 l 414 -186 l 279 -186 l 317 99 l 90 58 l 90 193 l 317 149 l 279 393 l 317 636 l 90 595 l 90 728 l 317 686 l 279 973 "},"R":{"x_min":69,"x_max":708,"ha":772,"o":"m 200 0 l 69 0 l 69 641 q 157 896 69 803 q 392 989 246 989 q 546 952 478 989 q 653 851 615 915 q 692 713 692 787 q 579 496 692 564 q 651 453 624 478 q 693 384 678 427 q 708 271 708 340 l 708 0 l 578 0 l 578 267 q 533 384 578 342 q 401 426 489 426 l 257 426 l 257 548 l 359 548 q 463 566 417 548 q 535 620 509 584 q 561 708 561 656 q 537 791 561 755 q 476 847 514 827 q 392 867 437 867 q 253 815 307 867 q 200 679 200 763 l 200 0 "},"o":{"x_min":40,"x_max":731.5,"ha":772,"o":"m 40 333 q 66 472 40 409 q 143 583 93 535 q 254 656 192 631 q 385 681 317 681 q 517 656 455 681 q 628 584 579 631 q 704 472 676 537 q 731 333 731 408 q 703 193 731 258 q 628 83 675 128 q 518 11 581 37 q 385 -14 455 -14 q 254 11 317 -14 q 142 83 191 36 q 67 194 94 130 q 40 333 40 257 m 168 333 q 229 167 168 232 q 385 102 290 102 q 542 167 481 102 q 604 333 604 232 q 542 499 604 435 q 385 564 481 564 q 229 499 290 564 q 168 333 168 435 "},"5":{"x_min":78,"x_max":719,"ha":772,"o":"m 119 973 l 628 973 l 628 850 l 253 850 l 253 598 l 370 598 q 514 578 450 598 q 623 520 577 559 q 694 424 669 481 q 719 291 719 367 q 683 150 719 217 q 581 41 647 83 q 431 0 515 0 l 78 0 l 78 122 l 395 122 q 529 169 482 122 q 577 294 577 216 q 525 429 577 384 q 362 475 474 475 l 119 475 l 119 973 "}}}
